<svg width="42" height="42" viewBox="0 0 42 42" fill="none" xmlns="http://www.w3.org/2000/svg">
<path d="M41.8335 20.9997C41.8335 9.49506 32.5048 0.166336 21.0002 0.166336C9.49555 0.166336 0.166824 9.49506 0.166824 20.9997C0.166824 32.5057 9.49485 41.833 21.0002 41.833C32.5055 41.833 41.8335 32.5057 41.8335 20.9997ZM38.7085 20.9997C38.7085 30.7797 30.7796 38.708 21.0002 38.708C11.2207 38.708 3.29183 30.7797 3.29183 20.9997C3.29183 11.2209 11.2214 3.29134 21.0002 3.29134C30.7789 3.29134 38.7085 11.2209 38.7085 20.9997ZM25.2631 12.8419L25.1122 12.6664C24.5587 12.1105 23.6907 12.0582 23.0781 12.5107L22.9025 12.6616L15.64 19.8929C15.0824 20.4481 15.0317 21.3192 15.4879 21.9319L15.64 22.1073L22.9025 29.3386C23.514 29.9475 24.5033 29.9453 25.1122 29.3338C25.6657 28.7779 25.7143 27.9097 25.2591 27.299L25.1074 27.1241L18.9585 21.0022L25.1074 14.8761C25.6633 14.3225 25.7156 13.4546 25.2631 12.8419Z" fill="white"/>
</svg>
