<svg width="42" height="42" viewBox="0 0 42 42" fill="none" xmlns="http://www.w3.org/2000/svg">
<path d="M0.166504 20.9997C0.166504 9.49506 9.49523 0.166336 20.9998 0.166336C32.5045 0.166336 41.8332 9.49506 41.8332 20.9997C41.8332 32.5057 32.5051 41.833 20.9998 41.833C9.49453 41.833 0.166504 32.5057 0.166504 20.9997ZM3.2915 20.9997C3.2915 30.7797 11.2204 38.708 20.9998 38.708C30.7793 38.708 38.7082 30.7797 38.7082 20.9997C38.7082 11.2209 30.7786 3.29134 20.9998 3.29134C11.2211 3.29134 3.2915 11.2209 3.2915 20.9997ZM16.7369 12.8419L16.8878 12.6664C17.4413 12.1105 18.3093 12.0582 18.9219 12.5107L19.0975 12.6616L26.36 19.8929C26.9176 20.4481 26.9683 21.3192 26.5121 21.9319L26.36 22.1073L19.0975 29.3386C18.486 29.9475 17.4967 29.9453 16.8878 29.3338C16.3343 28.7779 16.2857 27.9097 16.7409 27.299L16.8926 27.1241L23.0415 21.0022L16.8926 14.8761C16.3367 14.3225 16.2844 13.4546 16.7369 12.8419Z" fill="white"/>
</svg>
