<svg width="45" height="45" viewBox="0 0 45 45" fill="none" xmlns="http://www.w3.org/2000/svg">
<path fill-rule="evenodd" clip-rule="evenodd" d="M44 22.5C44 34.3741 34.3741 44 22.5 44C10.6259 44 1 34.3741 1 22.5C1 10.6259 10.6259 1 22.5 1C34.3741 1 44 10.6259 44 22.5ZM45 22.5C45 34.9264 34.9264 45 22.5 45C10.0736 45 0 34.9264 0 22.5C0 10.0736 10.0736 0 22.5 0C34.9264 0 45 10.0736 45 22.5ZM19.2012 30.4412C18.9031 30.8238 18.9362 31.3668 19.3005 31.7137C19.7013 32.0954 20.351 32.0954 20.7517 31.7137L29.6995 23.1911L29.7988 23.0815C30.0969 22.6989 30.0638 22.1559 29.6995 21.8089L20.7517 13.2863L20.6366 13.1917C20.2349 12.9077 19.6648 12.9393 19.3005 13.2863L19.2012 13.3959C18.9031 13.7785 18.9362 14.3215 19.3005 14.6685L27.5231 22.5L19.3005 30.3315L19.2012 30.4412Z" fill="white"/>
</svg>
