<svg width="22" height="40" viewBox="0 0 22 40" fill="none" xmlns="http://www.w3.org/2000/svg">
<path d="M15.9819 18.2344L7.73192 15.7656C6.77706 15.4844 6.11248 14.5703 6.11248 13.5547C6.11248 12.2812 7.12081 11.25 8.36595 11.25H13.4305C14.3625 11.25 15.2791 11.5391 16.043 12.0703C16.509 12.3906 17.1354 12.3125 17.5326 11.9141L20.191 9.25781C20.7333 8.71875 20.6569 7.82031 20.0535 7.34375C18.1819 5.84375 15.8444 5.00781 13.4458 5V1.25C13.4458 0.5625 12.8958 0 12.2236 0H9.77915C9.10692 0 8.55692 0.5625 8.55692 1.25V5H8.36595C3.49998 5 -0.411133 9.27344 0.0395619 14.3438C0.360395 17.9453 3.04928 20.875 6.44095 21.8906L14.2708 24.2344C15.2257 24.5234 15.8903 25.4297 15.8903 26.4453C15.8903 27.7188 14.8819 28.75 13.6368 28.75H8.5722C7.64026 28.75 6.72359 28.4609 5.9597 27.9297C5.49373 27.6094 4.86734 27.6875 4.47012 28.0859L1.81178 30.7422C1.26942 31.2812 1.34581 32.1797 1.94928 32.6562C3.82081 34.1562 6.15831 34.9922 8.55692 35V38.75C8.55692 39.4375 9.10692 40 9.77915 40H12.2236C12.8958 40 13.4458 39.4375 13.4458 38.75V34.9844C17.0055 34.9141 20.3437 32.75 21.5201 29.3047C23.1625 24.4922 20.4048 19.5547 15.9819 18.2344Z" fill="#FC9C03"/>
</svg>
