<svg width="49" height="40" viewBox="0 0 49 40" fill="none" xmlns="http://www.w3.org/2000/svg">
<path d="M23.8509 10.7412L8.16662 23.7908V37.8751C8.16662 38.2398 8.31003 38.5895 8.56528 38.8474C8.82054 39.1052 9.16675 39.2501 9.52773 39.2501L19.0606 39.2252C19.4204 39.2234 19.7649 39.0777 20.0187 38.82C20.2724 38.5624 20.4149 38.2137 20.4149 37.8502V29.6251C20.4149 29.2604 20.5583 28.9107 20.8136 28.6528C21.0688 28.395 21.415 28.2501 21.776 28.2501H27.2205C27.5815 28.2501 27.9277 28.395 28.1829 28.6528C28.4382 28.9107 28.5816 29.2604 28.5816 29.6251V37.8442C28.581 38.0251 28.6158 38.2044 28.684 38.3717C28.7521 38.539 28.8523 38.6911 28.9787 38.8192C29.1052 38.9473 29.2554 39.049 29.4208 39.1184C29.5862 39.1878 29.7636 39.2235 29.9427 39.2235L39.4722 39.2501C39.8331 39.2501 40.1794 39.1052 40.4346 38.8474C40.6899 38.5895 40.8333 38.2398 40.8333 37.8751V23.7813L25.1524 10.7412C24.9681 10.5911 24.7384 10.5092 24.5016 10.5092C24.2649 10.5092 24.0352 10.5911 23.8509 10.7412ZM48.6256 19.6108L41.5138 13.6888V1.78564C41.5138 1.51214 41.4063 1.24984 41.2148 1.05644C41.0234 0.863044 40.7637 0.754395 40.493 0.754395H35.7291C35.4584 0.754395 35.1987 0.863044 35.0073 1.05644C34.8158 1.24984 34.7083 1.51214 34.7083 1.78564V8.02557L27.092 1.69541C26.3611 1.08781 25.444 0.755609 24.4974 0.755609C23.5508 0.755609 22.6337 1.08781 21.9028 1.69541L0.369164 19.6108C0.265794 19.6971 0.180272 19.8032 0.117484 19.9229C0.0546956 20.0426 0.0158724 20.1736 0.00323228 20.3085C-0.00940784 20.4434 0.00438285 20.5794 0.0438164 20.7089C0.0832499 20.8384 0.147553 20.9588 0.233053 21.0631L2.40232 23.7272C2.48759 23.8319 2.59247 23.9187 2.71095 23.9824C2.82944 24.0461 2.9592 24.0857 3.09282 24.0987C3.22644 24.1117 3.36129 24.0979 3.48965 24.0582C3.618 24.0185 3.73735 23.9536 3.84085 23.8673L23.8509 7.21775C24.0352 7.06764 24.2649 6.98578 24.5016 6.98578C24.7384 6.98578 24.9681 7.06764 25.1524 7.21775L45.1633 23.8673C45.2666 23.9537 45.3858 24.0186 45.514 24.0585C45.6421 24.0983 45.7768 24.1122 45.9103 24.0995C46.0439 24.0867 46.1736 24.0475 46.2921 23.984C46.4106 23.9206 46.5155 23.8342 46.601 23.7298L48.7702 21.0657C48.8557 20.9607 48.9197 20.8398 48.9587 20.7097C48.9976 20.5796 49.0108 20.4431 48.9973 20.3079C48.9839 20.1727 48.9441 20.0415 48.8803 19.9219C48.8166 19.8022 48.73 19.6965 48.6256 19.6108Z" fill="#FC9C03"/>
</svg>
