<svg width="39" height="39" viewBox="0 0 39 39" fill="none" xmlns="http://www.w3.org/2000/svg">
<g clip-path="url(#clip0)">
<path d="M38.1697 30.1412L29.25 21.2215C27.4904 19.4619 24.8625 19.1191 22.7449 20.1627L14.625 12.0428V7.3125L4.87501 0L9.09669e-06 4.875L7.31251 14.625H12.0428L20.1627 22.7449C19.1268 24.8625 19.4619 27.4904 21.2215 29.25L30.1412 38.1697C31.2533 39.2818 33.051 39.2818 34.1555 38.1697L38.1697 34.1555C39.2742 33.0434 39.2742 31.2457 38.1697 30.1412ZM25.2662 17.1387C27.4219 17.1387 29.4481 17.9766 30.9715 19.5L32.4492 20.9777C33.6527 20.4521 34.7953 19.7209 35.7855 18.7307C38.6115 15.9047 39.5713 11.9285 38.6725 8.31797C38.5049 7.63242 37.6441 7.39629 37.1414 7.89902L31.4742 13.5662L26.3022 12.7055L25.4414 7.5334L31.1086 1.86621C31.6113 1.36348 31.3676 0.502734 30.6744 0.327539C27.0639 -0.563672 23.0877 0.396094 20.2693 3.21445C18.0984 5.38535 17.0777 8.24941 17.1311 11.1059L23.3848 17.3596C24.0018 17.2148 24.6416 17.1387 25.2662 17.1387ZM17.352 23.3848L13.033 19.0658L1.42442 30.682C-0.479874 32.5863 -0.479874 35.6713 1.42442 37.5756C3.32872 39.4799 6.41368 39.4799 8.31798 37.5756L17.7328 28.1607C17.1539 26.6449 16.9787 24.992 17.352 23.3848ZM4.87501 35.9531C3.86954 35.9531 3.04688 35.1305 3.04688 34.125C3.04688 33.1119 3.86192 32.2969 4.87501 32.2969C5.88809 32.2969 6.70313 33.1119 6.70313 34.125C6.70313 35.1305 5.88809 35.9531 4.87501 35.9531Z" fill="#FC9C03"/>
</g>
<defs>
<clipPath id="clip0">
<rect width="39" height="39" fill="white"/>
</clipPath>
</defs>
</svg>
